G04 #@! TF.GenerationSoftware,KiCad,Pcbnew,(5.1.9)-1*
G04 #@! TF.CreationDate,2021-09-29T15:51:31-03:00*
G04 #@! TF.ProjectId,RJ45-breakout_8ch,524a3435-2d62-4726-9561-6b6f75745f38,rev?*
G04 #@! TF.SameCoordinates,Original*
G04 #@! TF.FileFunction,Soldermask,Bot*
G04 #@! TF.FilePolarity,Negative*
%FSLAX46Y46*%
G04 Gerber Fmt 4.6, Leading zero omitted, Abs format (unit mm)*
G04 Created by KiCad (PCBNEW (5.1.9)-1) date 2021-09-29 15:51:31*
%MOMM*%
%LPD*%
G01*
G04 APERTURE LIST*
%ADD10R,3.500000X3.500000*%
%ADD11C,3.500000*%
%ADD12C,1.500000*%
%ADD13C,3.250000*%
G04 APERTURE END LIST*
D10*
G04 #@! TO.C,J16*
X214630000Y-119380000D03*
D11*
X219710000Y-119380000D03*
X224790000Y-119380000D03*
X229870000Y-119380000D03*
G04 #@! TD*
D10*
G04 #@! TO.C,J15*
X194310000Y-93980000D03*
D11*
X199390000Y-93980000D03*
X204470000Y-93980000D03*
X209550000Y-93980000D03*
G04 #@! TD*
D10*
G04 #@! TO.C,J14*
X173990000Y-119380000D03*
D11*
X179070000Y-119380000D03*
X184150000Y-119380000D03*
X189230000Y-119380000D03*
G04 #@! TD*
D10*
G04 #@! TO.C,J13*
X153670000Y-93980000D03*
D11*
X158750000Y-93980000D03*
X163830000Y-93980000D03*
X168910000Y-93980000D03*
G04 #@! TD*
D10*
G04 #@! TO.C,J12*
X133350000Y-119380000D03*
D11*
X138430000Y-119380000D03*
X143510000Y-119380000D03*
X148590000Y-119380000D03*
G04 #@! TD*
D10*
G04 #@! TO.C,J11*
X113030000Y-93980000D03*
D11*
X118110000Y-93980000D03*
X123190000Y-93980000D03*
X128270000Y-93980000D03*
G04 #@! TD*
D10*
G04 #@! TO.C,J10*
X92710000Y-119380000D03*
D11*
X97790000Y-119380000D03*
X102870000Y-119380000D03*
X107950000Y-119380000D03*
G04 #@! TD*
D10*
G04 #@! TO.C,J9*
X72390000Y-93980000D03*
D11*
X77470000Y-93980000D03*
X82550000Y-93980000D03*
X87630000Y-93980000D03*
G04 #@! TD*
G04 #@! TO.C,J1*
G36*
G01*
X75450000Y-76575000D02*
X75450000Y-75825000D01*
G75*
G02*
X75825000Y-75450000I375000J0D01*
G01*
X76575000Y-75450000D01*
G75*
G02*
X76950000Y-75825000I0J-375000D01*
G01*
X76950000Y-76575000D01*
G75*
G02*
X76575000Y-76950000I-375000J0D01*
G01*
X75825000Y-76950000D01*
G75*
G02*
X75450000Y-76575000I0J375000D01*
G01*
G37*
D12*
X78232000Y-76200000D03*
X80264000Y-76200000D03*
X82296000Y-76200000D03*
X77216000Y-77980000D03*
X79248000Y-77980000D03*
X81280000Y-77980000D03*
X83312000Y-77980000D03*
D13*
X73410000Y-73660000D03*
X86110000Y-73660000D03*
G04 #@! TD*
G04 #@! TO.C,J2*
G36*
G01*
X95770000Y-76575000D02*
X95770000Y-75825000D01*
G75*
G02*
X96145000Y-75450000I375000J0D01*
G01*
X96895000Y-75450000D01*
G75*
G02*
X97270000Y-75825000I0J-375000D01*
G01*
X97270000Y-76575000D01*
G75*
G02*
X96895000Y-76950000I-375000J0D01*
G01*
X96145000Y-76950000D01*
G75*
G02*
X95770000Y-76575000I0J375000D01*
G01*
G37*
D12*
X98552000Y-76200000D03*
X100584000Y-76200000D03*
X102616000Y-76200000D03*
X97536000Y-77980000D03*
X99568000Y-77980000D03*
X101600000Y-77980000D03*
X103632000Y-77980000D03*
D13*
X93730000Y-73660000D03*
X106430000Y-73660000D03*
G04 #@! TD*
G04 #@! TO.C,J3*
G36*
G01*
X116090000Y-76575000D02*
X116090000Y-75825000D01*
G75*
G02*
X116465000Y-75450000I375000J0D01*
G01*
X117215000Y-75450000D01*
G75*
G02*
X117590000Y-75825000I0J-375000D01*
G01*
X117590000Y-76575000D01*
G75*
G02*
X117215000Y-76950000I-375000J0D01*
G01*
X116465000Y-76950000D01*
G75*
G02*
X116090000Y-76575000I0J375000D01*
G01*
G37*
D12*
X118872000Y-76200000D03*
X120904000Y-76200000D03*
X122936000Y-76200000D03*
X117856000Y-77980000D03*
X119888000Y-77980000D03*
X121920000Y-77980000D03*
X123952000Y-77980000D03*
D13*
X114050000Y-73660000D03*
X126750000Y-73660000D03*
G04 #@! TD*
G04 #@! TO.C,J4*
G36*
G01*
X136410000Y-76575000D02*
X136410000Y-75825000D01*
G75*
G02*
X136785000Y-75450000I375000J0D01*
G01*
X137535000Y-75450000D01*
G75*
G02*
X137910000Y-75825000I0J-375000D01*
G01*
X137910000Y-76575000D01*
G75*
G02*
X137535000Y-76950000I-375000J0D01*
G01*
X136785000Y-76950000D01*
G75*
G02*
X136410000Y-76575000I0J375000D01*
G01*
G37*
D12*
X139192000Y-76200000D03*
X141224000Y-76200000D03*
X143256000Y-76200000D03*
X138176000Y-77980000D03*
X140208000Y-77980000D03*
X142240000Y-77980000D03*
X144272000Y-77980000D03*
D13*
X134370000Y-73660000D03*
X147070000Y-73660000D03*
G04 #@! TD*
G04 #@! TO.C,J5*
G36*
G01*
X156730000Y-76575000D02*
X156730000Y-75825000D01*
G75*
G02*
X157105000Y-75450000I375000J0D01*
G01*
X157855000Y-75450000D01*
G75*
G02*
X158230000Y-75825000I0J-375000D01*
G01*
X158230000Y-76575000D01*
G75*
G02*
X157855000Y-76950000I-375000J0D01*
G01*
X157105000Y-76950000D01*
G75*
G02*
X156730000Y-76575000I0J375000D01*
G01*
G37*
D12*
X159512000Y-76200000D03*
X161544000Y-76200000D03*
X163576000Y-76200000D03*
X158496000Y-77980000D03*
X160528000Y-77980000D03*
X162560000Y-77980000D03*
X164592000Y-77980000D03*
D13*
X154690000Y-73660000D03*
X167390000Y-73660000D03*
G04 #@! TD*
G04 #@! TO.C,J6*
G36*
G01*
X177050000Y-76575000D02*
X177050000Y-75825000D01*
G75*
G02*
X177425000Y-75450000I375000J0D01*
G01*
X178175000Y-75450000D01*
G75*
G02*
X178550000Y-75825000I0J-375000D01*
G01*
X178550000Y-76575000D01*
G75*
G02*
X178175000Y-76950000I-375000J0D01*
G01*
X177425000Y-76950000D01*
G75*
G02*
X177050000Y-76575000I0J375000D01*
G01*
G37*
D12*
X179832000Y-76200000D03*
X181864000Y-76200000D03*
X183896000Y-76200000D03*
X178816000Y-77980000D03*
X180848000Y-77980000D03*
X182880000Y-77980000D03*
X184912000Y-77980000D03*
D13*
X175010000Y-73660000D03*
X187710000Y-73660000D03*
G04 #@! TD*
G04 #@! TO.C,J7*
G36*
G01*
X197370000Y-76575000D02*
X197370000Y-75825000D01*
G75*
G02*
X197745000Y-75450000I375000J0D01*
G01*
X198495000Y-75450000D01*
G75*
G02*
X198870000Y-75825000I0J-375000D01*
G01*
X198870000Y-76575000D01*
G75*
G02*
X198495000Y-76950000I-375000J0D01*
G01*
X197745000Y-76950000D01*
G75*
G02*
X197370000Y-76575000I0J375000D01*
G01*
G37*
D12*
X200152000Y-76200000D03*
X202184000Y-76200000D03*
X204216000Y-76200000D03*
X199136000Y-77980000D03*
X201168000Y-77980000D03*
X203200000Y-77980000D03*
X205232000Y-77980000D03*
D13*
X195330000Y-73660000D03*
X208030000Y-73660000D03*
G04 #@! TD*
G04 #@! TO.C,J8*
G36*
G01*
X217690000Y-76575000D02*
X217690000Y-75825000D01*
G75*
G02*
X218065000Y-75450000I375000J0D01*
G01*
X218815000Y-75450000D01*
G75*
G02*
X219190000Y-75825000I0J-375000D01*
G01*
X219190000Y-76575000D01*
G75*
G02*
X218815000Y-76950000I-375000J0D01*
G01*
X218065000Y-76950000D01*
G75*
G02*
X217690000Y-76575000I0J375000D01*
G01*
G37*
D12*
X220472000Y-76200000D03*
X222504000Y-76200000D03*
X224536000Y-76200000D03*
X219456000Y-77980000D03*
X221488000Y-77980000D03*
X223520000Y-77980000D03*
X225552000Y-77980000D03*
D13*
X215650000Y-73660000D03*
X228350000Y-73660000D03*
G04 #@! TD*
M02*
