M48
; DRILL file {KiCad (5.1.9)-1} date 09/29/21 15:51:35
; FORMAT={-:-/ absolute / inch / decimal}
; #@! TF.CreationDate,2021-09-29T15:51:35-03:00
; #@! TF.GenerationSoftware,Kicad,Pcbnew,(5.1.9)-1
; #@! TF.FileFunction,Plated,1,2,PTH
FMAT,2
INCH
T1C0.0315
T2C0.0512
%
G90
G05
T1
X3.0Y-3.0
X3.04Y-3.0701
X3.08Y-3.0
X3.12Y-3.0701
X3.16Y-3.0
X3.2Y-3.0701
X3.24Y-3.0
X3.28Y-3.0701
X3.8Y-3.0
X3.84Y-3.0701
X3.88Y-3.0
X3.92Y-3.0701
X3.96Y-3.0
X4.0Y-3.0701
X4.04Y-3.0
X4.08Y-3.0701
X4.6Y-3.0
X4.64Y-3.0701
X4.68Y-3.0
X4.72Y-3.0701
X4.76Y-3.0
X4.8Y-3.0701
X4.84Y-3.0
X4.88Y-3.0701
X5.4Y-3.0
X5.44Y-3.0701
X5.48Y-3.0
X5.52Y-3.0701
X5.56Y-3.0
X5.6Y-3.0701
X5.64Y-3.0
X5.68Y-3.0701
X6.2Y-3.0
X6.24Y-3.0701
X6.28Y-3.0
X6.32Y-3.0701
X6.36Y-3.0
X6.4Y-3.0701
X6.44Y-3.0
X6.48Y-3.0701
X7.0Y-3.0
X7.04Y-3.0701
X7.08Y-3.0
X7.12Y-3.0701
X7.16Y-3.0
X7.2Y-3.0701
X7.24Y-3.0
X7.28Y-3.0701
X7.8Y-3.0
X7.84Y-3.0701
X7.88Y-3.0
X7.92Y-3.0701
X7.96Y-3.0
X8.0Y-3.0701
X8.04Y-3.0
X8.08Y-3.0701
X8.6Y-3.0
X8.64Y-3.0701
X8.68Y-3.0
X8.72Y-3.0701
X8.76Y-3.0
X8.8Y-3.0701
X8.84Y-3.0
X8.88Y-3.0701
T2
X2.85Y-3.7
X3.05Y-3.7
X3.25Y-3.7
X3.45Y-3.7
X3.65Y-4.7
X3.85Y-4.7
X4.05Y-4.7
X4.25Y-4.7
X4.45Y-3.7
X4.65Y-3.7
X4.85Y-3.7
X5.05Y-3.7
X5.25Y-4.7
X5.45Y-4.7
X5.65Y-4.7
X5.85Y-4.7
X6.05Y-3.7
X6.25Y-3.7
X6.45Y-3.7
X6.65Y-3.7
X6.85Y-4.7
X7.05Y-4.7
X7.25Y-4.7
X7.45Y-4.7
X7.65Y-3.7
X7.85Y-3.7
X8.05Y-3.7
X8.25Y-3.7
X8.45Y-4.7
X8.65Y-4.7
X8.85Y-4.7
X9.05Y-4.7
T0
M30
