%FSLAX45Y45*%
G04 Gerber Fmt 4.5, Leading zero omitted, Abs format (unit mm)*
G04 Created by KiCad (PCBNEW (5.1.9)-1) date 2021-09-29 15:51:36*
%MOMM*%
%LPD*%
G01*
G04 APERTURE LIST*
%TA.AperFunction,Profile*%
%ADD10C,0.100000*%
%TD*%
%ADD11C,0.200000*%
%ADD12C,0.300000*%
G04 APERTURE END LIST*
D10*
X23777000Y-13208000D02*
X23777000Y-6428000D01*
X23777000Y-6428000D02*
X6477000Y-6428000D01*
X6477000Y-13208000D02*
X23777000Y-13208000D01*
X6477000Y-6428000D02*
X6477000Y-13208000D01*
D11*
X7580000Y-7580000D02*
X7660000Y-7660000D01*
X7660000Y-7580000D02*
X7580000Y-7660000D01*
X7681600Y-7758000D02*
X7761600Y-7838000D01*
X7761600Y-7758000D02*
X7681600Y-7838000D01*
X7783200Y-7580000D02*
X7863200Y-7660000D01*
X7863200Y-7580000D02*
X7783200Y-7660000D01*
X7884800Y-7758000D02*
X7964800Y-7838000D01*
X7964800Y-7758000D02*
X7884800Y-7838000D01*
X7986400Y-7580000D02*
X8066400Y-7660000D01*
X8066400Y-7580000D02*
X7986400Y-7660000D01*
X8088000Y-7758000D02*
X8168000Y-7838000D01*
X8168000Y-7758000D02*
X8088000Y-7838000D01*
X8189600Y-7580000D02*
X8269600Y-7660000D01*
X8269600Y-7580000D02*
X8189600Y-7660000D01*
X8291200Y-7758000D02*
X8371200Y-7838000D01*
X8371200Y-7758000D02*
X8291200Y-7838000D01*
X9612000Y-7580000D02*
X9692000Y-7660000D01*
X9692000Y-7580000D02*
X9612000Y-7660000D01*
X9713600Y-7758000D02*
X9793600Y-7838000D01*
X9793600Y-7758000D02*
X9713600Y-7838000D01*
X9815200Y-7580000D02*
X9895200Y-7660000D01*
X9895200Y-7580000D02*
X9815200Y-7660000D01*
X9916800Y-7758000D02*
X9996800Y-7838000D01*
X9996800Y-7758000D02*
X9916800Y-7838000D01*
X10018400Y-7580000D02*
X10098400Y-7660000D01*
X10098400Y-7580000D02*
X10018400Y-7660000D01*
X10120000Y-7758000D02*
X10200000Y-7838000D01*
X10200000Y-7758000D02*
X10120000Y-7838000D01*
X10221600Y-7580000D02*
X10301600Y-7660000D01*
X10301600Y-7580000D02*
X10221600Y-7660000D01*
X10323200Y-7758000D02*
X10403200Y-7838000D01*
X10403200Y-7758000D02*
X10323200Y-7838000D01*
X11644000Y-7580000D02*
X11724000Y-7660000D01*
X11724000Y-7580000D02*
X11644000Y-7660000D01*
X11745600Y-7758000D02*
X11825600Y-7838000D01*
X11825600Y-7758000D02*
X11745600Y-7838000D01*
X11847200Y-7580000D02*
X11927200Y-7660000D01*
X11927200Y-7580000D02*
X11847200Y-7660000D01*
X11948800Y-7758000D02*
X12028800Y-7838000D01*
X12028800Y-7758000D02*
X11948800Y-7838000D01*
X12050400Y-7580000D02*
X12130400Y-7660000D01*
X12130400Y-7580000D02*
X12050400Y-7660000D01*
X12152000Y-7758000D02*
X12232000Y-7838000D01*
X12232000Y-7758000D02*
X12152000Y-7838000D01*
X12253600Y-7580000D02*
X12333600Y-7660000D01*
X12333600Y-7580000D02*
X12253600Y-7660000D01*
X12355200Y-7758000D02*
X12435200Y-7838000D01*
X12435200Y-7758000D02*
X12355200Y-7838000D01*
X13676000Y-7580000D02*
X13756000Y-7660000D01*
X13756000Y-7580000D02*
X13676000Y-7660000D01*
X13777600Y-7758000D02*
X13857600Y-7838000D01*
X13857600Y-7758000D02*
X13777600Y-7838000D01*
X13879200Y-7580000D02*
X13959200Y-7660000D01*
X13959200Y-7580000D02*
X13879200Y-7660000D01*
X13980800Y-7758000D02*
X14060800Y-7838000D01*
X14060800Y-7758000D02*
X13980800Y-7838000D01*
X14082400Y-7580000D02*
X14162400Y-7660000D01*
X14162400Y-7580000D02*
X14082400Y-7660000D01*
X14184000Y-7758000D02*
X14264000Y-7838000D01*
X14264000Y-7758000D02*
X14184000Y-7838000D01*
X14285600Y-7580000D02*
X14365600Y-7660000D01*
X14365600Y-7580000D02*
X14285600Y-7660000D01*
X14387200Y-7758000D02*
X14467200Y-7838000D01*
X14467200Y-7758000D02*
X14387200Y-7838000D01*
X15708000Y-7580000D02*
X15788000Y-7660000D01*
X15788000Y-7580000D02*
X15708000Y-7660000D01*
X15809600Y-7758000D02*
X15889600Y-7838000D01*
X15889600Y-7758000D02*
X15809600Y-7838000D01*
X15911200Y-7580000D02*
X15991200Y-7660000D01*
X15991200Y-7580000D02*
X15911200Y-7660000D01*
X16012800Y-7758000D02*
X16092800Y-7838000D01*
X16092800Y-7758000D02*
X16012800Y-7838000D01*
X16114400Y-7580000D02*
X16194400Y-7660000D01*
X16194400Y-7580000D02*
X16114400Y-7660000D01*
X16216000Y-7758000D02*
X16296000Y-7838000D01*
X16296000Y-7758000D02*
X16216000Y-7838000D01*
X16317600Y-7580000D02*
X16397600Y-7660000D01*
X16397600Y-7580000D02*
X16317600Y-7660000D01*
X16419200Y-7758000D02*
X16499200Y-7838000D01*
X16499200Y-7758000D02*
X16419200Y-7838000D01*
X17740000Y-7580000D02*
X17820000Y-7660000D01*
X17820000Y-7580000D02*
X17740000Y-7660000D01*
X17841600Y-7758000D02*
X17921600Y-7838000D01*
X17921600Y-7758000D02*
X17841600Y-7838000D01*
X17943200Y-7580000D02*
X18023200Y-7660000D01*
X18023200Y-7580000D02*
X17943200Y-7660000D01*
X18044800Y-7758000D02*
X18124800Y-7838000D01*
X18124800Y-7758000D02*
X18044800Y-7838000D01*
X18146400Y-7580000D02*
X18226400Y-7660000D01*
X18226400Y-7580000D02*
X18146400Y-7660000D01*
X18248000Y-7758000D02*
X18328000Y-7838000D01*
X18328000Y-7758000D02*
X18248000Y-7838000D01*
X18349600Y-7580000D02*
X18429600Y-7660000D01*
X18429600Y-7580000D02*
X18349600Y-7660000D01*
X18451200Y-7758000D02*
X18531200Y-7838000D01*
X18531200Y-7758000D02*
X18451200Y-7838000D01*
X19772000Y-7580000D02*
X19852000Y-7660000D01*
X19852000Y-7580000D02*
X19772000Y-7660000D01*
X19873600Y-7758000D02*
X19953600Y-7838000D01*
X19953600Y-7758000D02*
X19873600Y-7838000D01*
X19975200Y-7580000D02*
X20055200Y-7660000D01*
X20055200Y-7580000D02*
X19975200Y-7660000D01*
X20076800Y-7758000D02*
X20156800Y-7838000D01*
X20156800Y-7758000D02*
X20076800Y-7838000D01*
X20178400Y-7580000D02*
X20258400Y-7660000D01*
X20258400Y-7580000D02*
X20178400Y-7660000D01*
X20280000Y-7758000D02*
X20360000Y-7838000D01*
X20360000Y-7758000D02*
X20280000Y-7838000D01*
X20381600Y-7580000D02*
X20461600Y-7660000D01*
X20461600Y-7580000D02*
X20381600Y-7660000D01*
X20483200Y-7758000D02*
X20563200Y-7838000D01*
X20563200Y-7758000D02*
X20483200Y-7838000D01*
X21804000Y-7580000D02*
X21884000Y-7660000D01*
X21884000Y-7580000D02*
X21804000Y-7660000D01*
X21905600Y-7758000D02*
X21985600Y-7838000D01*
X21985600Y-7758000D02*
X21905600Y-7838000D01*
X22007200Y-7580000D02*
X22087200Y-7660000D01*
X22087200Y-7580000D02*
X22007200Y-7660000D01*
X22108800Y-7758000D02*
X22188800Y-7838000D01*
X22188800Y-7758000D02*
X22108800Y-7838000D01*
X22210400Y-7580000D02*
X22290400Y-7660000D01*
X22290400Y-7580000D02*
X22210400Y-7660000D01*
X22312000Y-7758000D02*
X22392000Y-7838000D01*
X22392000Y-7758000D02*
X22312000Y-7838000D01*
X22413600Y-7580000D02*
X22493600Y-7660000D01*
X22493600Y-7580000D02*
X22413600Y-7660000D01*
X22515200Y-7758000D02*
X22595200Y-7838000D01*
X22595200Y-7758000D02*
X22515200Y-7838000D01*
X7304000Y-9398000D02*
G75*
G03*
X7304000Y-9398000I-65000J0D01*
G01*
X7812000Y-9398000D02*
G75*
G03*
X7812000Y-9398000I-65000J0D01*
G01*
X8320000Y-9398000D02*
G75*
G03*
X8320000Y-9398000I-65000J0D01*
G01*
X8828000Y-9398000D02*
G75*
G03*
X8828000Y-9398000I-65000J0D01*
G01*
X9336000Y-11938000D02*
G75*
G03*
X9336000Y-11938000I-65000J0D01*
G01*
X9844000Y-11938000D02*
G75*
G03*
X9844000Y-11938000I-65000J0D01*
G01*
X10352000Y-11938000D02*
G75*
G03*
X10352000Y-11938000I-65000J0D01*
G01*
X10860000Y-11938000D02*
G75*
G03*
X10860000Y-11938000I-65000J0D01*
G01*
X11368000Y-9398000D02*
G75*
G03*
X11368000Y-9398000I-65000J0D01*
G01*
X11876000Y-9398000D02*
G75*
G03*
X11876000Y-9398000I-65000J0D01*
G01*
X12384000Y-9398000D02*
G75*
G03*
X12384000Y-9398000I-65000J0D01*
G01*
X12892000Y-9398000D02*
G75*
G03*
X12892000Y-9398000I-65000J0D01*
G01*
X13400000Y-11938000D02*
G75*
G03*
X13400000Y-11938000I-65000J0D01*
G01*
X13908000Y-11938000D02*
G75*
G03*
X13908000Y-11938000I-65000J0D01*
G01*
X14416000Y-11938000D02*
G75*
G03*
X14416000Y-11938000I-65000J0D01*
G01*
X14924000Y-11938000D02*
G75*
G03*
X14924000Y-11938000I-65000J0D01*
G01*
X15432000Y-9398000D02*
G75*
G03*
X15432000Y-9398000I-65000J0D01*
G01*
X15940000Y-9398000D02*
G75*
G03*
X15940000Y-9398000I-65000J0D01*
G01*
X16448000Y-9398000D02*
G75*
G03*
X16448000Y-9398000I-65000J0D01*
G01*
X16956000Y-9398000D02*
G75*
G03*
X16956000Y-9398000I-65000J0D01*
G01*
X17464000Y-11938000D02*
G75*
G03*
X17464000Y-11938000I-65000J0D01*
G01*
X17972000Y-11938000D02*
G75*
G03*
X17972000Y-11938000I-65000J0D01*
G01*
X18480000Y-11938000D02*
G75*
G03*
X18480000Y-11938000I-65000J0D01*
G01*
X18988000Y-11938000D02*
G75*
G03*
X18988000Y-11938000I-65000J0D01*
G01*
X19496000Y-9398000D02*
G75*
G03*
X19496000Y-9398000I-65000J0D01*
G01*
X20004000Y-9398000D02*
G75*
G03*
X20004000Y-9398000I-65000J0D01*
G01*
X20512000Y-9398000D02*
G75*
G03*
X20512000Y-9398000I-65000J0D01*
G01*
X21020000Y-9398000D02*
G75*
G03*
X21020000Y-9398000I-65000J0D01*
G01*
X21528000Y-11938000D02*
G75*
G03*
X21528000Y-11938000I-65000J0D01*
G01*
X22036000Y-11938000D02*
G75*
G03*
X22036000Y-11938000I-65000J0D01*
G01*
X22544000Y-11938000D02*
G75*
G03*
X22544000Y-11938000I-65000J0D01*
G01*
X23052000Y-11938000D02*
G75*
G03*
X23052000Y-11938000I-65000J0D01*
G01*
D12*
X6758428Y-13678714D02*
X6758428Y-13378714D01*
X6829857Y-13378714D01*
X6872714Y-13393000D01*
X6901286Y-13421571D01*
X6915571Y-13450143D01*
X6929857Y-13507286D01*
X6929857Y-13550143D01*
X6915571Y-13607286D01*
X6901286Y-13635857D01*
X6872714Y-13664429D01*
X6829857Y-13678714D01*
X6758428Y-13678714D01*
X7058428Y-13678714D02*
X7058428Y-13478714D01*
X7058428Y-13535857D02*
X7072714Y-13507286D01*
X7087000Y-13493000D01*
X7115571Y-13478714D01*
X7144143Y-13478714D01*
X7244143Y-13678714D02*
X7244143Y-13478714D01*
X7244143Y-13378714D02*
X7229857Y-13393000D01*
X7244143Y-13407286D01*
X7258428Y-13393000D01*
X7244143Y-13378714D01*
X7244143Y-13407286D01*
X7429857Y-13678714D02*
X7401286Y-13664429D01*
X7387000Y-13635857D01*
X7387000Y-13378714D01*
X7587000Y-13678714D02*
X7558428Y-13664429D01*
X7544143Y-13635857D01*
X7544143Y-13378714D01*
X7929857Y-13678714D02*
X7929857Y-13378714D01*
X8029857Y-13593000D01*
X8129857Y-13378714D01*
X8129857Y-13678714D01*
X8401286Y-13678714D02*
X8401286Y-13521571D01*
X8387000Y-13493000D01*
X8358428Y-13478714D01*
X8301286Y-13478714D01*
X8272714Y-13493000D01*
X8401286Y-13664429D02*
X8372714Y-13678714D01*
X8301286Y-13678714D01*
X8272714Y-13664429D01*
X8258428Y-13635857D01*
X8258428Y-13607286D01*
X8272714Y-13578714D01*
X8301286Y-13564429D01*
X8372714Y-13564429D01*
X8401286Y-13550143D01*
X8544143Y-13478714D02*
X8544143Y-13778714D01*
X8544143Y-13493000D02*
X8572714Y-13478714D01*
X8629857Y-13478714D01*
X8658428Y-13493000D01*
X8672714Y-13507286D01*
X8687000Y-13535857D01*
X8687000Y-13621571D01*
X8672714Y-13650143D01*
X8658428Y-13664429D01*
X8629857Y-13678714D01*
X8572714Y-13678714D01*
X8544143Y-13664429D01*
X8815571Y-13650143D02*
X8829857Y-13664429D01*
X8815571Y-13678714D01*
X8801286Y-13664429D01*
X8815571Y-13650143D01*
X8815571Y-13678714D01*
X8815571Y-13493000D02*
X8829857Y-13507286D01*
X8815571Y-13521571D01*
X8801286Y-13507286D01*
X8815571Y-13493000D01*
X8815571Y-13521571D01*
X6392000Y-14133000D02*
X6472000Y-14213000D01*
X6472000Y-14133000D02*
X6392000Y-14213000D01*
X6815571Y-14008714D02*
X6844143Y-14008714D01*
X6872714Y-14023000D01*
X6887000Y-14037286D01*
X6901286Y-14065857D01*
X6915571Y-14123000D01*
X6915571Y-14194429D01*
X6901286Y-14251571D01*
X6887000Y-14280143D01*
X6872714Y-14294429D01*
X6844143Y-14308714D01*
X6815571Y-14308714D01*
X6787000Y-14294429D01*
X6772714Y-14280143D01*
X6758428Y-14251571D01*
X6744143Y-14194429D01*
X6744143Y-14123000D01*
X6758428Y-14065857D01*
X6772714Y-14037286D01*
X6787000Y-14023000D01*
X6815571Y-14008714D01*
X7044143Y-14280143D02*
X7058428Y-14294429D01*
X7044143Y-14308714D01*
X7029857Y-14294429D01*
X7044143Y-14280143D01*
X7044143Y-14308714D01*
X7229857Y-14137286D02*
X7201286Y-14123000D01*
X7187000Y-14108714D01*
X7172714Y-14080143D01*
X7172714Y-14065857D01*
X7187000Y-14037286D01*
X7201286Y-14023000D01*
X7229857Y-14008714D01*
X7287000Y-14008714D01*
X7315571Y-14023000D01*
X7329857Y-14037286D01*
X7344143Y-14065857D01*
X7344143Y-14080143D01*
X7329857Y-14108714D01*
X7315571Y-14123000D01*
X7287000Y-14137286D01*
X7229857Y-14137286D01*
X7201286Y-14151571D01*
X7187000Y-14165857D01*
X7172714Y-14194429D01*
X7172714Y-14251571D01*
X7187000Y-14280143D01*
X7201286Y-14294429D01*
X7229857Y-14308714D01*
X7287000Y-14308714D01*
X7315571Y-14294429D01*
X7329857Y-14280143D01*
X7344143Y-14251571D01*
X7344143Y-14194429D01*
X7329857Y-14165857D01*
X7315571Y-14151571D01*
X7287000Y-14137286D01*
X7529857Y-14008714D02*
X7558428Y-14008714D01*
X7587000Y-14023000D01*
X7601286Y-14037286D01*
X7615571Y-14065857D01*
X7629857Y-14123000D01*
X7629857Y-14194429D01*
X7615571Y-14251571D01*
X7601286Y-14280143D01*
X7587000Y-14294429D01*
X7558428Y-14308714D01*
X7529857Y-14308714D01*
X7501286Y-14294429D01*
X7487000Y-14280143D01*
X7472714Y-14251571D01*
X7458428Y-14194429D01*
X7458428Y-14123000D01*
X7472714Y-14065857D01*
X7487000Y-14037286D01*
X7501286Y-14023000D01*
X7529857Y-14008714D01*
X7758428Y-14308714D02*
X7758428Y-14108714D01*
X7758428Y-14137286D02*
X7772714Y-14123000D01*
X7801286Y-14108714D01*
X7844143Y-14108714D01*
X7872714Y-14123000D01*
X7887000Y-14151571D01*
X7887000Y-14308714D01*
X7887000Y-14151571D02*
X7901286Y-14123000D01*
X7929857Y-14108714D01*
X7972714Y-14108714D01*
X8001286Y-14123000D01*
X8015571Y-14151571D01*
X8015571Y-14308714D01*
X8158428Y-14308714D02*
X8158428Y-14108714D01*
X8158428Y-14137286D02*
X8172714Y-14123000D01*
X8201286Y-14108714D01*
X8244143Y-14108714D01*
X8272714Y-14123000D01*
X8287000Y-14151571D01*
X8287000Y-14308714D01*
X8287000Y-14151571D02*
X8301286Y-14123000D01*
X8329857Y-14108714D01*
X8372714Y-14108714D01*
X8401286Y-14123000D01*
X8415571Y-14151571D01*
X8415571Y-14308714D01*
X9001286Y-13994429D02*
X8744143Y-14380143D01*
X9387000Y-14008714D02*
X9415571Y-14008714D01*
X9444143Y-14023000D01*
X9458428Y-14037286D01*
X9472714Y-14065857D01*
X9487000Y-14123000D01*
X9487000Y-14194429D01*
X9472714Y-14251571D01*
X9458428Y-14280143D01*
X9444143Y-14294429D01*
X9415571Y-14308714D01*
X9387000Y-14308714D01*
X9358428Y-14294429D01*
X9344143Y-14280143D01*
X9329857Y-14251571D01*
X9315571Y-14194429D01*
X9315571Y-14123000D01*
X9329857Y-14065857D01*
X9344143Y-14037286D01*
X9358428Y-14023000D01*
X9387000Y-14008714D01*
X9615571Y-14280143D02*
X9629857Y-14294429D01*
X9615571Y-14308714D01*
X9601286Y-14294429D01*
X9615571Y-14280143D01*
X9615571Y-14308714D01*
X9815571Y-14008714D02*
X9844143Y-14008714D01*
X9872714Y-14023000D01*
X9887000Y-14037286D01*
X9901286Y-14065857D01*
X9915571Y-14123000D01*
X9915571Y-14194429D01*
X9901286Y-14251571D01*
X9887000Y-14280143D01*
X9872714Y-14294429D01*
X9844143Y-14308714D01*
X9815571Y-14308714D01*
X9787000Y-14294429D01*
X9772714Y-14280143D01*
X9758428Y-14251571D01*
X9744143Y-14194429D01*
X9744143Y-14123000D01*
X9758428Y-14065857D01*
X9772714Y-14037286D01*
X9787000Y-14023000D01*
X9815571Y-14008714D01*
X10015571Y-14008714D02*
X10201286Y-14008714D01*
X10101286Y-14123000D01*
X10144143Y-14123000D01*
X10172714Y-14137286D01*
X10187000Y-14151571D01*
X10201286Y-14180143D01*
X10201286Y-14251571D01*
X10187000Y-14280143D01*
X10172714Y-14294429D01*
X10144143Y-14308714D01*
X10058428Y-14308714D01*
X10029857Y-14294429D01*
X10015571Y-14280143D01*
X10487000Y-14308714D02*
X10315571Y-14308714D01*
X10401286Y-14308714D02*
X10401286Y-14008714D01*
X10372714Y-14051571D01*
X10344143Y-14080143D01*
X10315571Y-14094429D01*
X10601286Y-14008714D02*
X10601286Y-14065857D01*
X10715571Y-14008714D02*
X10715571Y-14065857D01*
X11158428Y-14423000D02*
X11144143Y-14408714D01*
X11115571Y-14365857D01*
X11101286Y-14337286D01*
X11087000Y-14294429D01*
X11072714Y-14223000D01*
X11072714Y-14165857D01*
X11087000Y-14094429D01*
X11101286Y-14051571D01*
X11115571Y-14023000D01*
X11144143Y-13980143D01*
X11158428Y-13965857D01*
X11401286Y-14008714D02*
X11344143Y-14008714D01*
X11315571Y-14023000D01*
X11301286Y-14037286D01*
X11272714Y-14080143D01*
X11258428Y-14137286D01*
X11258428Y-14251571D01*
X11272714Y-14280143D01*
X11287000Y-14294429D01*
X11315571Y-14308714D01*
X11372714Y-14308714D01*
X11401286Y-14294429D01*
X11415571Y-14280143D01*
X11429857Y-14251571D01*
X11429857Y-14180143D01*
X11415571Y-14151571D01*
X11401286Y-14137286D01*
X11372714Y-14123000D01*
X11315571Y-14123000D01*
X11287000Y-14137286D01*
X11272714Y-14151571D01*
X11258428Y-14180143D01*
X11687000Y-14108714D02*
X11687000Y-14308714D01*
X11615571Y-13994429D02*
X11544143Y-14208714D01*
X11729857Y-14208714D01*
X12072714Y-14308714D02*
X12072714Y-14008714D01*
X12201286Y-14308714D02*
X12201286Y-14151571D01*
X12187000Y-14123000D01*
X12158428Y-14108714D01*
X12115571Y-14108714D01*
X12087000Y-14123000D01*
X12072714Y-14137286D01*
X12387000Y-14308714D02*
X12358428Y-14294429D01*
X12344143Y-14280143D01*
X12329857Y-14251571D01*
X12329857Y-14165857D01*
X12344143Y-14137286D01*
X12358428Y-14123000D01*
X12387000Y-14108714D01*
X12429857Y-14108714D01*
X12458428Y-14123000D01*
X12472714Y-14137286D01*
X12487000Y-14165857D01*
X12487000Y-14251571D01*
X12472714Y-14280143D01*
X12458428Y-14294429D01*
X12429857Y-14308714D01*
X12387000Y-14308714D01*
X12658428Y-14308714D02*
X12629857Y-14294429D01*
X12615571Y-14265857D01*
X12615571Y-14008714D01*
X12887000Y-14294429D02*
X12858428Y-14308714D01*
X12801286Y-14308714D01*
X12772714Y-14294429D01*
X12758428Y-14265857D01*
X12758428Y-14151571D01*
X12772714Y-14123000D01*
X12801286Y-14108714D01*
X12858428Y-14108714D01*
X12887000Y-14123000D01*
X12901286Y-14151571D01*
X12901286Y-14180143D01*
X12758428Y-14208714D01*
X13015571Y-14294429D02*
X13044143Y-14308714D01*
X13101286Y-14308714D01*
X13129857Y-14294429D01*
X13144143Y-14265857D01*
X13144143Y-14251571D01*
X13129857Y-14223000D01*
X13101286Y-14208714D01*
X13058428Y-14208714D01*
X13029857Y-14194429D01*
X13015571Y-14165857D01*
X13015571Y-14151571D01*
X13029857Y-14123000D01*
X13058428Y-14108714D01*
X13101286Y-14108714D01*
X13129857Y-14123000D01*
X13244143Y-14423000D02*
X13258428Y-14408714D01*
X13287000Y-14365857D01*
X13301286Y-14337286D01*
X13315571Y-14294429D01*
X13329857Y-14223000D01*
X13329857Y-14165857D01*
X13315571Y-14094429D01*
X13301286Y-14051571D01*
X13287000Y-14023000D01*
X13258428Y-13980143D01*
X13244143Y-13965857D01*
X6472000Y-14569000D02*
G75*
G03*
X6472000Y-14569000I-65000J0D01*
G01*
X6915571Y-14704714D02*
X6744143Y-14704714D01*
X6829857Y-14704714D02*
X6829857Y-14404714D01*
X6801286Y-14447571D01*
X6772714Y-14476143D01*
X6744143Y-14490429D01*
X7044143Y-14676143D02*
X7058428Y-14690429D01*
X7044143Y-14704714D01*
X7029857Y-14690429D01*
X7044143Y-14676143D01*
X7044143Y-14704714D01*
X7158428Y-14404714D02*
X7344143Y-14404714D01*
X7244143Y-14519000D01*
X7287000Y-14519000D01*
X7315571Y-14533286D01*
X7329857Y-14547571D01*
X7344143Y-14576143D01*
X7344143Y-14647571D01*
X7329857Y-14676143D01*
X7315571Y-14690429D01*
X7287000Y-14704714D01*
X7201286Y-14704714D01*
X7172714Y-14690429D01*
X7158428Y-14676143D01*
X7529857Y-14404714D02*
X7558428Y-14404714D01*
X7587000Y-14419000D01*
X7601286Y-14433286D01*
X7615571Y-14461857D01*
X7629857Y-14519000D01*
X7629857Y-14590429D01*
X7615571Y-14647571D01*
X7601286Y-14676143D01*
X7587000Y-14690429D01*
X7558428Y-14704714D01*
X7529857Y-14704714D01*
X7501286Y-14690429D01*
X7487000Y-14676143D01*
X7472714Y-14647571D01*
X7458428Y-14590429D01*
X7458428Y-14519000D01*
X7472714Y-14461857D01*
X7487000Y-14433286D01*
X7501286Y-14419000D01*
X7529857Y-14404714D01*
X7758428Y-14704714D02*
X7758428Y-14504714D01*
X7758428Y-14533286D02*
X7772714Y-14519000D01*
X7801286Y-14504714D01*
X7844143Y-14504714D01*
X7872714Y-14519000D01*
X7887000Y-14547571D01*
X7887000Y-14704714D01*
X7887000Y-14547571D02*
X7901286Y-14519000D01*
X7929857Y-14504714D01*
X7972714Y-14504714D01*
X8001286Y-14519000D01*
X8015571Y-14547571D01*
X8015571Y-14704714D01*
X8158428Y-14704714D02*
X8158428Y-14504714D01*
X8158428Y-14533286D02*
X8172714Y-14519000D01*
X8201286Y-14504714D01*
X8244143Y-14504714D01*
X8272714Y-14519000D01*
X8287000Y-14547571D01*
X8287000Y-14704714D01*
X8287000Y-14547571D02*
X8301286Y-14519000D01*
X8329857Y-14504714D01*
X8372714Y-14504714D01*
X8401286Y-14519000D01*
X8415571Y-14547571D01*
X8415571Y-14704714D01*
X9001286Y-14390429D02*
X8744143Y-14776143D01*
X9387000Y-14404714D02*
X9415571Y-14404714D01*
X9444143Y-14419000D01*
X9458428Y-14433286D01*
X9472714Y-14461857D01*
X9487000Y-14519000D01*
X9487000Y-14590429D01*
X9472714Y-14647571D01*
X9458428Y-14676143D01*
X9444143Y-14690429D01*
X9415571Y-14704714D01*
X9387000Y-14704714D01*
X9358428Y-14690429D01*
X9344143Y-14676143D01*
X9329857Y-14647571D01*
X9315571Y-14590429D01*
X9315571Y-14519000D01*
X9329857Y-14461857D01*
X9344143Y-14433286D01*
X9358428Y-14419000D01*
X9387000Y-14404714D01*
X9615571Y-14676143D02*
X9629857Y-14690429D01*
X9615571Y-14704714D01*
X9601286Y-14690429D01*
X9615571Y-14676143D01*
X9615571Y-14704714D01*
X9815571Y-14404714D02*
X9844143Y-14404714D01*
X9872714Y-14419000D01*
X9887000Y-14433286D01*
X9901286Y-14461857D01*
X9915571Y-14519000D01*
X9915571Y-14590429D01*
X9901286Y-14647571D01*
X9887000Y-14676143D01*
X9872714Y-14690429D01*
X9844143Y-14704714D01*
X9815571Y-14704714D01*
X9787000Y-14690429D01*
X9772714Y-14676143D01*
X9758428Y-14647571D01*
X9744143Y-14590429D01*
X9744143Y-14519000D01*
X9758428Y-14461857D01*
X9772714Y-14433286D01*
X9787000Y-14419000D01*
X9815571Y-14404714D01*
X10187000Y-14404714D02*
X10044143Y-14404714D01*
X10029857Y-14547571D01*
X10044143Y-14533286D01*
X10072714Y-14519000D01*
X10144143Y-14519000D01*
X10172714Y-14533286D01*
X10187000Y-14547571D01*
X10201286Y-14576143D01*
X10201286Y-14647571D01*
X10187000Y-14676143D01*
X10172714Y-14690429D01*
X10144143Y-14704714D01*
X10072714Y-14704714D01*
X10044143Y-14690429D01*
X10029857Y-14676143D01*
X10487000Y-14704714D02*
X10315571Y-14704714D01*
X10401286Y-14704714D02*
X10401286Y-14404714D01*
X10372714Y-14447571D01*
X10344143Y-14476143D01*
X10315571Y-14490429D01*
X10601286Y-14404714D02*
X10601286Y-14461857D01*
X10715571Y-14404714D02*
X10715571Y-14461857D01*
X11158428Y-14819000D02*
X11144143Y-14804714D01*
X11115571Y-14761857D01*
X11101286Y-14733286D01*
X11087000Y-14690429D01*
X11072714Y-14619000D01*
X11072714Y-14561857D01*
X11087000Y-14490429D01*
X11101286Y-14447571D01*
X11115571Y-14419000D01*
X11144143Y-14376143D01*
X11158428Y-14361857D01*
X11244143Y-14404714D02*
X11429857Y-14404714D01*
X11329857Y-14519000D01*
X11372714Y-14519000D01*
X11401286Y-14533286D01*
X11415571Y-14547571D01*
X11429857Y-14576143D01*
X11429857Y-14647571D01*
X11415571Y-14676143D01*
X11401286Y-14690429D01*
X11372714Y-14704714D01*
X11287000Y-14704714D01*
X11258428Y-14690429D01*
X11244143Y-14676143D01*
X11544143Y-14433286D02*
X11558428Y-14419000D01*
X11587000Y-14404714D01*
X11658428Y-14404714D01*
X11687000Y-14419000D01*
X11701286Y-14433286D01*
X11715571Y-14461857D01*
X11715571Y-14490429D01*
X11701286Y-14533286D01*
X11529857Y-14704714D01*
X11715571Y-14704714D01*
X12072714Y-14704714D02*
X12072714Y-14404714D01*
X12201286Y-14704714D02*
X12201286Y-14547571D01*
X12187000Y-14519000D01*
X12158428Y-14504714D01*
X12115571Y-14504714D01*
X12087000Y-14519000D01*
X12072714Y-14533286D01*
X12387000Y-14704714D02*
X12358428Y-14690429D01*
X12344143Y-14676143D01*
X12329857Y-14647571D01*
X12329857Y-14561857D01*
X12344143Y-14533286D01*
X12358428Y-14519000D01*
X12387000Y-14504714D01*
X12429857Y-14504714D01*
X12458428Y-14519000D01*
X12472714Y-14533286D01*
X12487000Y-14561857D01*
X12487000Y-14647571D01*
X12472714Y-14676143D01*
X12458428Y-14690429D01*
X12429857Y-14704714D01*
X12387000Y-14704714D01*
X12658428Y-14704714D02*
X12629857Y-14690429D01*
X12615571Y-14661857D01*
X12615571Y-14404714D01*
X12887000Y-14690429D02*
X12858428Y-14704714D01*
X12801286Y-14704714D01*
X12772714Y-14690429D01*
X12758428Y-14661857D01*
X12758428Y-14547571D01*
X12772714Y-14519000D01*
X12801286Y-14504714D01*
X12858428Y-14504714D01*
X12887000Y-14519000D01*
X12901286Y-14547571D01*
X12901286Y-14576143D01*
X12758428Y-14604714D01*
X13015571Y-14690429D02*
X13044143Y-14704714D01*
X13101286Y-14704714D01*
X13129857Y-14690429D01*
X13144143Y-14661857D01*
X13144143Y-14647571D01*
X13129857Y-14619000D01*
X13101286Y-14604714D01*
X13058428Y-14604714D01*
X13029857Y-14590429D01*
X13015571Y-14561857D01*
X13015571Y-14547571D01*
X13029857Y-14519000D01*
X13058428Y-14504714D01*
X13101286Y-14504714D01*
X13129857Y-14519000D01*
X13244143Y-14819000D02*
X13258428Y-14804714D01*
X13287000Y-14761857D01*
X13301286Y-14733286D01*
X13315571Y-14690429D01*
X13329857Y-14619000D01*
X13329857Y-14561857D01*
X13315571Y-14490429D01*
X13301286Y-14447571D01*
X13287000Y-14419000D01*
X13258428Y-14376143D01*
X13244143Y-14361857D01*
M02*
